<mxfile host="app.diagrams.net" modified="2022-05-12T13:40:43.343Z" agent="5.0 (Windows NT 10.0; Win64; x64) AppleWebKit/537.36 (KHTML, like Gecko) Chrome/101.0.4951.54 Safari/537.36" etag="n74CsX4FDy3V8Vx-lePt" version="18.0.3" type="github">
  <diagram id="sfXt9ERe9IdA1DEtyk3j" name="Page-1">
    <mxGraphModel dx="1038" dy="581" grid="1" gridSize="10" guides="1" tooltips="1" connect="1" arrows="1" fold="1" page="1" pageScale="1" pageWidth="827" pageHeight="1169" math="0" shadow="0">
      <root>
        <mxCell id="0" />
        <mxCell id="1" parent="0" />
        <mxCell id="h2D98Z0pqSIGs78hdWVf-2" value="" style="rounded=0;whiteSpace=wrap;html=1;" vertex="1" parent="1">
          <mxGeometry x="40" y="40" width="760" height="590" as="geometry" />
        </mxCell>
        <mxCell id="h2D98Z0pqSIGs78hdWVf-3" value="&lt;span style=&quot;font-size: 10px;&quot;&gt;Image Logo&lt;/span&gt;" style="rounded=0;whiteSpace=wrap;html=1;" vertex="1" parent="1">
          <mxGeometry x="90" y="50" width="80" height="40" as="geometry" />
        </mxCell>
        <mxCell id="h2D98Z0pqSIGs78hdWVf-4" value="Hbutton" style="rounded=0;whiteSpace=wrap;html=1;" vertex="1" parent="1">
          <mxGeometry x="440" y="60" width="50" height="20" as="geometry" />
        </mxCell>
        <mxCell id="h2D98Z0pqSIGs78hdWVf-5" value="Pbutton" style="rounded=0;whiteSpace=wrap;html=1;" vertex="1" parent="1">
          <mxGeometry x="500" y="60" width="50" height="20" as="geometry" />
        </mxCell>
        <mxCell id="h2D98Z0pqSIGs78hdWVf-6" value="Abutton" style="rounded=0;whiteSpace=wrap;html=1;" vertex="1" parent="1">
          <mxGeometry x="560" y="60" width="50" height="20" as="geometry" />
        </mxCell>
        <mxCell id="h2D98Z0pqSIGs78hdWVf-7" value="ACbutton" style="rounded=0;whiteSpace=wrap;html=1;" vertex="1" parent="1">
          <mxGeometry x="620" y="60" width="60" height="20" as="geometry" />
        </mxCell>
        <mxCell id="h2D98Z0pqSIGs78hdWVf-8" value="Cartbtn" style="rounded=0;whiteSpace=wrap;html=1;" vertex="1" parent="1">
          <mxGeometry x="690" y="60" width="60" height="20" as="geometry" />
        </mxCell>
        <mxCell id="h2D98Z0pqSIGs78hdWVf-9" value="" style="rounded=0;whiteSpace=wrap;html=1;" vertex="1" parent="1">
          <mxGeometry x="40" y="540" width="760" height="90" as="geometry" />
        </mxCell>
        <mxCell id="h2D98Z0pqSIGs78hdWVf-10" value="Tải Ứng Dụng Của Chúng Tôi" style="text;html=1;strokeColor=none;fillColor=none;align=center;verticalAlign=middle;whiteSpace=wrap;rounded=0;fontSize=10;" vertex="1" parent="1">
          <mxGeometry x="40" y="550" width="140" height="10" as="geometry" />
        </mxCell>
        <mxCell id="h2D98Z0pqSIGs78hdWVf-11" value="Tải Ứng Dụng bằng Android và IOS dành cho điện thoại" style="text;html=1;strokeColor=none;fillColor=none;align=center;verticalAlign=middle;whiteSpace=wrap;rounded=0;fontSize=10;" vertex="1" parent="1">
          <mxGeometry x="38" y="564" width="260" height="10" as="geometry" />
        </mxCell>
        <mxCell id="h2D98Z0pqSIGs78hdWVf-12" value="TextSuggestion" style="rounded=0;whiteSpace=wrap;html=1;fontSize=10;" vertex="1" parent="1">
          <mxGeometry x="80" y="585" width="80" height="25" as="geometry" />
        </mxCell>
        <mxCell id="h2D98Z0pqSIGs78hdWVf-13" value="TextSuggestion2" style="rounded=0;whiteSpace=wrap;html=1;fontSize=10;" vertex="1" parent="1">
          <mxGeometry x="170" y="585" width="80" height="25" as="geometry" />
        </mxCell>
        <mxCell id="h2D98Z0pqSIGs78hdWVf-14" value="Image Logo" style="rounded=0;whiteSpace=wrap;html=1;fontSize=10;" vertex="1" parent="1">
          <mxGeometry x="350" y="564" width="90" height="40" as="geometry" />
        </mxCell>
        <mxCell id="h2D98Z0pqSIGs78hdWVf-15" value="Đường Dẫn" style="text;html=1;strokeColor=none;fillColor=none;align=center;verticalAlign=middle;whiteSpace=wrap;rounded=0;fontSize=10;" vertex="1" parent="1">
          <mxGeometry x="515" y="544" width="60" height="30" as="geometry" />
        </mxCell>
        <mxCell id="h2D98Z0pqSIGs78hdWVf-16" value="TextLink1" style="rounded=0;whiteSpace=wrap;html=1;fontSize=10;" vertex="1" parent="1">
          <mxGeometry x="510" y="574" width="70" height="21" as="geometry" />
        </mxCell>
        <mxCell id="h2D98Z0pqSIGs78hdWVf-17" value="TextLink2" style="rounded=0;whiteSpace=wrap;html=1;fontSize=10;" vertex="1" parent="1">
          <mxGeometry x="510" y="600" width="70" height="21" as="geometry" />
        </mxCell>
        <mxCell id="h2D98Z0pqSIGs78hdWVf-18" value="Follow Chúng tôi" style="text;html=1;strokeColor=none;fillColor=none;align=center;verticalAlign=middle;whiteSpace=wrap;rounded=0;fontSize=10;" vertex="1" parent="1">
          <mxGeometry x="660" y="544" width="80" height="30" as="geometry" />
        </mxCell>
        <mxCell id="h2D98Z0pqSIGs78hdWVf-19" value="TextLinkApp1" style="rounded=0;whiteSpace=wrap;html=1;fontSize=10;" vertex="1" parent="1">
          <mxGeometry x="665" y="574" width="70" height="21" as="geometry" />
        </mxCell>
        <mxCell id="h2D98Z0pqSIGs78hdWVf-20" value="TextLinkApp2" style="rounded=0;whiteSpace=wrap;html=1;fontSize=10;" vertex="1" parent="1">
          <mxGeometry x="665" y="600" width="70" height="21" as="geometry" />
        </mxCell>
        <mxCell id="h2D98Z0pqSIGs78hdWVf-39" value="Baner Image" style="text;html=1;strokeColor=none;fillColor=none;align=center;verticalAlign=middle;whiteSpace=wrap;rounded=0;" vertex="1" parent="1">
          <mxGeometry x="280" y="270" width="100" height="30" as="geometry" />
        </mxCell>
        <mxCell id="h2D98Z0pqSIGs78hdWVf-40" value="" style="rounded=0;whiteSpace=wrap;html=1;" vertex="1" parent="1">
          <mxGeometry x="470" y="170" width="270" height="270" as="geometry" />
        </mxCell>
        <mxCell id="h2D98Z0pqSIGs78hdWVf-41" value="btnLoginSwich" style="rounded=0;whiteSpace=wrap;html=1;" vertex="1" parent="1">
          <mxGeometry x="490" y="180" width="100" height="20" as="geometry" />
        </mxCell>
        <mxCell id="h2D98Z0pqSIGs78hdWVf-42" value="btnSignUpSwich" style="rounded=0;whiteSpace=wrap;html=1;" vertex="1" parent="1">
          <mxGeometry x="620" y="180" width="100" height="20" as="geometry" />
        </mxCell>
        <mxCell id="h2D98Z0pqSIGs78hdWVf-43" value="txtAccount" style="rounded=0;whiteSpace=wrap;html=1;" vertex="1" parent="1">
          <mxGeometry x="512.5" y="260" width="185" height="20" as="geometry" />
        </mxCell>
        <mxCell id="h2D98Z0pqSIGs78hdWVf-44" value="txtPassword" style="rounded=0;whiteSpace=wrap;html=1;" vertex="1" parent="1">
          <mxGeometry x="512.5" y="290" width="185" height="20" as="geometry" />
        </mxCell>
        <mxCell id="h2D98Z0pqSIGs78hdWVf-46" value="btnLogin" style="rounded=0;whiteSpace=wrap;html=1;" vertex="1" parent="1">
          <mxGeometry x="512.5" y="325" width="185" height="20" as="geometry" />
        </mxCell>
        <mxCell id="h2D98Z0pqSIGs78hdWVf-47" value="TextLinkForgotPassword" style="rounded=0;whiteSpace=wrap;html=1;" vertex="1" parent="1">
          <mxGeometry x="540" y="360" width="140" height="20" as="geometry" />
        </mxCell>
        <mxCell id="h2D98Z0pqSIGs78hdWVf-50" value="" style="line;strokeWidth=2;html=1;" vertex="1" parent="1">
          <mxGeometry x="490" y="200" width="100" height="10" as="geometry" />
        </mxCell>
      </root>
    </mxGraphModel>
  </diagram>
</mxfile>
